<svg xmlns="http://www.w3.org/2000/svg" viewBox="0 0 100 100">
  <defs>
    <linearGradient id="g" x1="0%" y1="0%" x2="100%" y2="100%">
      <stop offset="0%" stop-color="#14b8a6"/>
      <stop offset="100%" stop-color="#6366f1"/>
    </linearGradient>
  </defs>
  <rect width="100" height="100" rx="22" fill="url(#g)"/>
  <path d="M62 28c-8 0-14 6-14 14v4h-6c-2 0-4 2-4 4v22c0 2 2 4 4 4h40c2 0 4-2 4-4V50c0-2-2-4-4-4h-6v-4c0-8-6-14-14-14zm0 8c3 0 6 3 6 6v4H56v-4c0-3 3-6 6-6z" fill="white" opacity="0.95"/>
</svg>
